<svg id="Capa_1" enable-background="new 0 0 512 512" height="512" viewBox="0 0 512 512" width="512" xmlns="http://www.w3.org/2000/svg" xmlns:xlink="http://www.w3.org/1999/xlink"><linearGradient id="SVGID_1_" gradientUnits="userSpaceOnUse" x1="256" x2="256" y1="512" y2="0"><stop offset="0" stop-color="#c3ffe8"/><stop offset=".9973" stop-color="#f0fff4"/></linearGradient><linearGradient id="SVGID_2_" gradientUnits="userSpaceOnUse" x1="256" x2="256" y1="407" y2="105"><stop offset="0" stop-color="#9cffac"/><stop offset="1" stop-color="#00b59c"/></linearGradient><g><g><circle cx="256" cy="256" fill="url(#SVGID_1_)" r="256"/></g><g><g><path d="m131.647 264.882h248.706c14.694 0 26.647-11.953 26.647-26.647 0-73.47-59.765-133.235-133.235-133.235h-35.529c-73.471 0-133.236 59.765-133.236 133.235 0 14.694 11.953 26.647 26.647 26.647zm195.412-89.246c4.906 0 8.882 3.978 8.882 8.883s-3.976 8.882-8.882 8.882c-4.905 0-8.882-3.977-8.882-8.882 0-4.906 3.977-8.883 8.882-8.883zm-35.53-35.53c4.906 0 8.882 3.977 8.882 8.882s-3.976 8.882-8.882 8.882c-4.905 0-8.882-3.977-8.882-8.882s3.977-8.882 8.882-8.882zm-35.529 35.53c4.906 0 8.882 3.978 8.882 8.883s-3.976 8.882-8.882 8.882c-4.905 0-8.882-3.977-8.882-8.882 0-4.906 3.977-8.883 8.882-8.883zm-35.529-35.53c4.906 0 8.882 3.977 8.882 8.882s-3.976 8.882-8.882 8.882c-4.905 0-8.882-3.977-8.882-8.882s3.976-8.882 8.882-8.882zm-35.53 35.53c4.906 0 8.882 3.978 8.882 8.883s-3.976 8.882-8.882 8.882c-4.905 0-8.882-3.977-8.882-8.882 0-4.906 3.977-8.883 8.882-8.883zm213.177 160.305h-284.236c-4.91 0-8.882 3.973-8.882 8.882 0 34.281 27.896 62.177 62.177 62.177h177.647c34.28 0 62.176-27.896 62.176-62.177 0-4.909-3.973-8.882-8.882-8.882zm0-53.294c-14.807 0-22.683 5.907-29.015 10.661-5.5 4.12-9.472 7.104-18.354 7.104s-12.855-2.984-18.363-7.104c-6.332-4.753-14.208-10.661-29.015-10.661-14.798 0-22.683 5.907-29.006 10.661-5.508 4.12-9.481 7.104-18.363 7.104s-12.855-2.984-18.363-7.104c-6.323-4.753-14.208-10.661-29.006-10.661-14.807 0-22.683 5.907-29.015 10.661-5.508 4.12-9.481 7.104-18.363 7.104s-12.855-2.984-18.354-7.104c-6.332-4.753-14.208-10.661-29.015-10.661-4.91 0-8.882 3.973-8.882 8.882s3.973 8.882 8.882 8.882c8.882 0 12.855 2.984 18.363 7.104 6.323 4.754 14.208 10.661 29.006 10.661 14.807 0 22.683-5.907 29.015-10.661 5.508-4.12 9.481-7.104 18.363-7.104s12.855 2.984 18.354 7.104c6.332 4.754 14.208 10.661 29.015 10.661s22.683-5.907 29.015-10.661c5.5-4.12 9.472-7.104 18.354-7.104s12.855 2.984 18.363 7.104c6.332 4.754 14.208 10.661 29.015 10.661 14.798 0 22.683-5.907 29.006-10.661 5.508-4.12 9.481-7.104 18.363-7.104 4.91 0 8.882-3.973 8.882-8.882s-3.973-8.882-8.882-8.882z" fill="url(#SVGID_2_)"/></g></g></g></svg>